<svg data-v-423bf9ae="" xmlns="http://www.w3.org/2000/svg" viewBox="0 0 375 90" class="iconLeft"><!----><!----><!----><g data-v-423bf9ae="" id="e5bdf539-5b33-4a32-aa9d-a51660cff93c" fill="#E7E7E6" transform="matrix(5.474453012044838,0,0,5.474453012044838,101.54436110191693,0.27372251486014676)"><path d="M2.41 13.47C3.65 13.47 4.24 12.91 4.62 11.27C4.77 10.49 4.96 9.72 4.96 8.95C4.96 8.37 4.77 8.26 4.49 8.05L4.51 7.95C4.90 7.70 5.14 7.46 5.36 6.52C5.54 5.81 5.66 5.07 5.66 4.37C5.66 3.25 5.21 2.87 4.13 2.87L1.72 2.87L-0.14 13.47ZM1.68 11.80L2.23 8.76L2.94 8.76C3.21 8.76 3.35 8.82 3.35 9.24C3.35 9.48 3.30 9.86 3.18 10.60C3.00 11.56 2.77 11.80 2.38 11.80ZM2.46 7.39L2.97 4.52L3.58 4.52C3.89 4.52 4.05 4.54 4.05 4.91C4.05 5.12 3.99 5.45 3.91 5.94C3.70 7.13 3.53 7.39 3.09 7.39ZM9.07 13.47L9.39 11.63L7.36 11.63L7.84 8.89L9.84 8.89L10.14 7.22L8.13 7.22L8.60 4.62L10.64 4.62L10.95 2.87L7.36 2.87L5.50 13.47ZM14.04 13.47L14.36 11.63L12.33 11.63L12.81 8.89L14.81 8.89L15.11 7.22L13.10 7.22L13.57 4.62L15.61 4.62L15.92 2.87L12.33 2.87L10.47 13.47ZM16.98 13.47L17.75 9.10L19.71 9.10L20.01 7.41L18.05 7.41L18.54 4.62L20.54 4.62L20.85 2.87L17.30 2.87L15.44 13.47ZM27.66 6.16C27.87 5.50 28.07 4.58 28.07 3.99C28.07 3.04 27.62 2.69 26.39 2.69C24.86 2.69 24.32 3.26 23.94 5.26C23.77 6.12 23.72 6.65 23.72 7.01C23.72 7.48 23.79 7.64 24.01 7.91C24.39 8.36 25.33 8.82 25.63 9.25C25.75 9.41 25.79 9.51 25.79 9.73C25.79 9.86 25.77 10.02 25.66 10.58C25.44 11.73 25.26 11.90 24.75 11.90C24.43 11.90 24.28 11.84 24.28 11.42C24.28 10.92 24.40 10.30 24.51 9.93L23.21 9.93C22.97 10.67 22.81 11.45 22.81 12.21C22.81 13.37 23.34 13.65 24.42 13.65C26.03 13.65 26.61 12.99 27.03 10.88C27.26 9.76 27.29 9.28 27.29 8.93C27.29 8.36 27.12 8.16 26.80 7.87C26.43 7.56 25.65 7.17 25.33 6.79C25.23 6.66 25.19 6.58 25.19 6.41C25.19 6.23 25.21 5.96 25.34 5.36C25.51 4.54 25.63 4.37 26.10 4.37C26.46 4.37 26.60 4.44 26.60 4.79C26.60 5.19 26.47 5.74 26.38 6.16ZM30.37 13.47L31.92 4.62L33.25 4.62L33.56 2.87L29.33 2.87L29.02 4.62L30.37 4.62L28.81 13.47ZM36.62 13.47L37.56 2.87L34.96 2.87L32.12 13.47L33.68 13.47L34.34 10.81L35.32 10.81L35.04 13.47ZM35.55 9.13L34.69 9.13L35.87 4.61L35.98 4.61ZM41.09 9.41C40.88 10.61 40.78 11.05 40.64 11.42C40.54 11.68 40.38 11.82 40.08 11.82C39.65 11.82 39.56 11.66 39.56 11.24C39.56 10.85 39.66 10.16 40.07 7.94C40.47 5.53 40.60 5.11 40.75 4.75C40.88 4.49 41.02 4.40 41.34 4.40C41.73 4.40 41.80 4.54 41.80 4.84C41.80 5.42 41.68 6.10 41.54 6.75L43.02 6.75L43.19 5.89C43.30 5.25 43.36 4.70 43.36 4.27C43.36 3.88 43.32 3.56 43.20 3.33C43.02 2.88 42.60 2.69 41.64 2.69C40.59 2.69 40.10 2.91 39.70 3.54C39.37 4.06 39.13 4.56 38.57 7.71C38.12 10.28 37.98 11.35 37.98 12.03C37.98 13.34 38.44 13.65 39.76 13.65C41.03 13.65 41.62 13.03 41.96 12.18C42.34 11.21 42.48 10.21 42.57 9.41ZM48.01 13.47L48.01 13.41L47.29 7.91L49.77 2.94L49.78 2.87L48.12 2.87L45.99 7.39L45.88 7.39C45.92 7.21 45.98 7.01 46.12 6.17L46.70 2.87L45.12 2.87L43.26 13.47L44.84 13.47L45.47 9.83C45.64 8.93 45.68 8.69 45.68 8.47L45.79 8.47L46.31 13.47Z"></path></g><!----><g data-v-423bf9ae="" id="7ee34cc1-9f7d-4ac6-a365-c209adcbb533" transform="matrix(1.1686793598679592,0,0,1.1686793598679592,-16.849162688209404,-10.685106766473268)" stroke="none" fill="#E7E7E6"><path d="M83.704 68.14c-.567.083-.623-.687-1.198-.687-.572 0-.572.691-1.147.691-.576 0-.576-.691-1.15-.691-.573 0-.573.691-1.147.691-.575 0-.575-.691-1.149-.691-.575 0-.575.691-1.147.691-.572 0-.572-.691-1.145-.691-.573 0-.573.691-1.145.691-.572 0-.572-.691-1.144-.691s-.572.691-1.144.691-.572-.691-1.144-.691c-.571 0-.571.691-1.144.691-.57 0-.57-.691-1.142-.691-.569 0-.569.691-1.144.691-.572 0-.572-.691-1.144-.691-.573 0-.573.691-1.148.691-.571 0-.571-.691-1.144-.691-.574 0-.574.691-1.147.691-.575 0-.575-.691-1.15-.691s-.575.691-1.151.691c-.578 0-.578-.691-1.153-.691-.575 0-.575.691-1.151.691-.572 0-.572-.691-1.146-.691-.575 0-.575.691-1.147.691-.574 0-.574-.691-1.149-.691-.572 0-.572.691-1.146.691-.575 0-.575-.691-1.147-.691-.574 0-.574.691-1.149.691-.573 0-.573-.691-1.147-.691-.579 0-.579.691-1.153.691-.576 0-.576-.691-1.152-.691-.575 0-.575.691-1.15.691-.577 0-.577-.691-1.152-.691s-.575.691-1.15.691-.575-.691-1.15-.691-.575.691-1.151.691c-.575 0-.575-.691-1.153-.691-.575 0-.575.691-1.152.691-.574 0-.574-.691-1.152-.691-.576 0-.576.691-1.152.691-.575 0-.575-.691-1.15-.691-.578 0-.578.691-1.156.691-.576 0-.576-.691-1.154-.691-.575 0-.575.691-1.152.691-.574 0-.574-.691-1.149-.691-.578 0-.578.691-1.155.691-.576 0-.576-.691-1.15-.691-.573 0-.573.691-1.149.691-.575 0-.575-.691-1.15-.691-.578 0-.578.691-1.158.691-.575 0-.575-.691-1.153-.691-.579 0-.579.691-1.154.691-.58 0-.58-.691-1.157-.691-.579 0-.579.691-1.155.691-.579 0-.579-.691-1.154-.691s-.575.691-1.153.691c-.579 0-.579-.691-1.158-.691-.58 0-.58.691-1.161.691-.582 0-.582-.691-1.162-.691-.582 0-.633.762-1.208.688l-.005-10.043c.568-.083.623.687 1.198.687.574 0 .574-.691 1.147-.691.575 0 .575.691 1.15.691.572 0 .572-.691 1.149-.691.573 0 .573.691 1.147.691.572 0 .572-.691 1.146-.691.572 0 .572.691 1.148.691.573 0 .573-.691 1.146-.691s.572.691 1.141.691c.572 0 .572-.691 1.144-.691s.571.691 1.145.691c.57 0 .57-.691 1.142-.691.573 0 .573.691 1.143.691.571 0 .571-.691 1.146-.691.572 0 .572.691 1.144.691.574 0 .574-.691 1.146-.691s.572.691 1.145.691c.574 0 .574-.691 1.149-.691s.575.691 1.149.691c.577 0 .577-.691 1.152-.691s.575.691 1.152.691c.574 0 .574-.691 1.15-.691.572 0 .572.691 1.148.691.572 0 .572-.691 1.146-.691.573 0 .573.691 1.148.691.574 0 .574-.691 1.146-.691.575 0 .575.691 1.149.691.573 0 .573-.691 1.148-.691s.575.691 1.15.691c.577 0 .577-.691 1.152-.691.576 0 .576.691 1.152.691.575 0 .575-.691 1.15-.691s.575.691 1.15.691.575-.691 1.15-.691.575.691 1.15.691.575-.691 1.152-.691c.575 0 .575.691 1.151.691.576 0 .576-.691 1.151-.691.578 0 .578.691 1.153.691.578 0 .578-.691 1.153-.691.577 0 .577.691 1.152.691.577 0 .577-.691 1.154-.691.575 0 .575.691 1.153.691.576 0 .576-.691 1.153-.691.573 0 .573.691 1.148.691.578 0 .578-.691 1.153-.691.578 0 .578.691 1.153.691.573 0 .573-.691 1.15-.691.573 0 .573.691 1.147.691.58 0 .58-.691 1.158-.691s.578.691 1.153.691c.578 0 .578-.691 1.153-.691.58 0 .58.691 1.158.691.579 0 .579-.691 1.155-.691.578 0 .578.691 1.153.691.579 0 .579-.691 1.158-.691.578 0 .578.691 1.157.691s.579-.691 1.159-.691c.582 0 .582.691 1.164.691s.631-.763 1.207-.688l.003 10.043zM83.014 46H15.328l.037-2.717C15.634 23.669 29.535 9.99 49.17 9.99c19.639 0 33.539 13.668 33.807 33.282L83.014 46zm-62.062-5h56.436C75.97 26 64.709 15.811 49.17 15.811 33.632 15.811 22.374 26 20.952 41zM83 87H16V72h67v15zm-62-6h56v-4H21v4zm53.471-24.703c-2.895 0-4.489-1.042-5.657-1.802-.906-.592-1.405-.918-2.678-.918-1.272 0-1.771.326-2.679.917-1.163.761-2.76 1.803-5.651 1.803s-4.485-1.042-5.649-1.804c-.904-.591-1.402-.917-2.671-.917-1.273 0-1.771.325-2.677.917-1.164.761-2.76 1.803-5.651 1.803s-4.486-1.042-5.651-1.803c-.904-.592-1.402-.917-2.674-.917s-1.767.325-2.674.917c-1.165.761-2.761 1.803-5.652 1.803s-4.578-1.042-5.742-1.804c-.904-.59-1.765-.915-2.765-.915v-5.441c3 0 4.576 1.042 5.74 1.804.906.592 1.449.917 2.72.917 1.271 0 1.793-.325 2.699-.917 1.162-.761 2.771-1.804 5.662-1.804 2.893 0 4.491 1.043 5.657 1.804.903.591 1.406.917 2.676.917 1.272 0 1.771-.326 2.678-.917 1.165-.761 2.761-1.804 5.651-1.804 2.891 0 4.485 1.043 5.649 1.804.903.591 1.402.917 2.673.917 1.273 0 1.771-.326 2.678-.918 1.165-.76 2.76-1.803 5.652-1.803 2.893 0 4.489 1.042 5.653 1.803.907.592 1.406.918 2.682.918 1.275 0 1.872-.326 2.78-.918 1.165-.761 2.75-1.803 5.75-1.803v5.441c-2 0-1.87.326-2.776.918-1.166.76-2.86 1.802-5.753 1.802zm-33.6-27.587l-.691-.41a6.182 6.182 0 0 1-3.016-5.295 6.193 6.193 0 0 1 3.013-5.294l.694-.413.695.413a6.184 6.184 0 0 1 3.019 5.294 6.17 6.17 0 0 1-3.021 5.296l-.693.409zm.003-8.118a3.442 3.442 0 0 0 0 4.826 3.453 3.453 0 0 0 .991-2.412c0-.925-.36-1.781-.991-2.414zm10.522 3.774l-.536-.6a6.178 6.178 0 0 1-1.28-5.957 6.179 6.179 0 0 1 4.466-4.141l.786-.185.537.602a6.185 6.185 0 0 1 1.288 5.955 6.177 6.177 0 0 1-4.474 4.143l-.787.183zm2.446-7.743a3.399 3.399 0 0 0-1.67 2.004 3.443 3.443 0 0 0 .221 2.602 3.4 3.4 0 0 0 1.668-2.005 3.407 3.407 0 0 0-.219-2.601zm12.874 17.528l-.692-.41a6.183 6.183 0 0 1-3.015-5.295 6.194 6.194 0 0 1 3.013-5.294l.694-.413.695.413a6.184 6.184 0 0 1 3.019 5.294 6.171 6.171 0 0 1-3.021 5.296l-.693.409zm.003-8.118a3.4 3.4 0 0 0-.99 2.414c0 .91.364 1.777.99 2.412a3.453 3.453 0 0 0 .991-2.412c0-.925-.36-1.781-.991-2.414zM33.08 32.875a6.108 6.108 0 0 1-4.352-1.805 6.18 6.18 0 0 1-1.609-5.874l.199-.782.782-.2a6.194 6.194 0 0 1 5.875 1.61 6.179 6.179 0 0 1 1.61 5.881l-.201.78-.779.199a6.163 6.163 0 0 1-1.525.191zm-3.434-6.133a3.399 3.399 0 0 0 1.007 2.405 3.41 3.41 0 0 0 2.404 1.008 3.444 3.444 0 0 0-1.004-2.407 3.412 3.412 0 0 0-2.407-1.006zm24.916 8.614a6.102 6.102 0 0 1-3.647-1.201 6.183 6.183 0 0 1-2.472-5.568l.078-.803.744-.315a6.22 6.22 0 0 1 6.055.709 6.18 6.18 0 0 1 2.468 5.575l-.082.8-.739.313a6.089 6.089 0 0 1-2.405.49zm-3.389-5.619c.137.883.612 1.68 1.356 2.228.73.538 1.648.759 2.529.635a3.453 3.453 0 0 0-1.354-2.231 3.424 3.424 0 0 0-2.531-.632zm-12.08 8.631c-.452 0-.906-.05-1.347-.149l-.787-.176-.223-.775a6.18 6.18 0 0 1 1.432-5.922 6.238 6.238 0 0 1 5.825-1.789l.787.175.224.775a6.181 6.181 0 0 1-1.43 5.925 6.178 6.178 0 0 1-4.481 1.936zm3.433-6.238a3.407 3.407 0 0 0-2.378 1.079 3.461 3.461 0 0 0-.93 2.437 3.398 3.398 0 0 0 2.374-1.078c.635-.675.96-1.544.934-2.438z"></path></g><!----></svg>